<svg xmlns="http://www.w3.org/2000/svg" viewBox="0 0 32 32">
  <rect width="32" height="32" rx="8" fill="#0f0f13"/>
  <!-- Gamepad body -->
  <path d="M5 13C5 11.3 6.3 10 8 10h16c1.7 0 3 1.3 3 3v4c0 3.3-2.7 6-6 6h-1l-1.5-2h-5L12 23h-1C7.7 23 5 20.3 5 17v-4z" fill="#7c6af7"/>
  <!-- D-pad vertical -->
  <rect x="10" y="13" width="2" height="5" rx="0.5" fill="#0f0f13"/>
  <!-- D-pad horizontal -->
  <rect x="8.5" y="14.5" width="5" height="2" rx="0.5" fill="#0f0f13"/>
  <!-- Buttons -->
  <circle cx="21" cy="14.5" r="1.2" fill="#0f0f13"/>
  <circle cx="23.5" cy="16" r="1.2" fill="#0f0f13"/>
  <circle cx="21" cy="17.5" r="1.2" fill="#0f0f13"/>
  <circle cx="18.5" cy="16" r="1.2" fill="#0f0f13"/>
</svg>
